<svg width="366" height="213" viewBox="0 0 366 213" fill="none" xmlns="http://www.w3.org/2000/svg">
<path d="M36.2676 60.5496C45.6111 58.5825 49.9643 44.8117 56.0198 38.4198C61.3485 32.7951 66.5499 27.8108 73.7603 24.7029C93.2943 16.2831 109.1 5.70526 131.005 3.30464C164.03 -0.314471 198.801 3.87226 230.498 12.4492C249.507 17.5929 269.175 22.9222 287.194 31.0127C294.854 34.4515 303.723 38.8341 309.599 45.0038C317.058 52.8367 325.353 60.0997 333.1 67.6824C341.801 76.1983 347.146 84.4579 353.858 94.7503C363.103 108.925 363.826 117.788 363.826 134.438C363.826 149.121 354.94 157.003 345.72 167.541C339.969 174.113 334.101 183.418 325.236 186.013C312.542 189.728 299.546 188.939 286.463 188.939" stroke="white" stroke-width="3" stroke-linecap="round"/>
<path d="M54.373 72.0723C73.5187 53.1854 93.2432 44.6689 119.299 37.8716C142.751 31.7537 167.15 32.5678 191.176 32.5678C199.659 32.5678 208.748 31.741 217.146 33.2993C222.373 34.2693 225.886 38.4132 230.223 41.1637C247.032 51.8232 262.276 65.1826 278.506 76.736C284.662 81.1183 290.741 86.6267 295.424 92.6476C298.653 96.7995 297.147 110.489 293.046 113.223" stroke="white" stroke-width="3" stroke-linecap="round"/>
<path d="M85.6475 40.7981C109.81 25.2649 157.646 13.8457 186.238 26.8984C216.864 40.88 248.388 52.1064 276.769 70.7008C290.948 79.9905 307.075 92.0812 318.194 104.993C325.369 113.326 323.735 121.219 324.686 131.329C326.02 145.5 328.253 154.053 314.444 160.958" stroke="white" stroke-width="3" stroke-linecap="round"/>
<path d="M246.958 25.9834C268.222 38.3872 293.978 51.2483 307.861 72.072C317.909 87.1447 332.111 97.9909 336.575 116.057C339.203 126.695 344.073 140.75 344.073 151.904C344.073 159.497 322.953 158.659 317.737 159.311" stroke="white" stroke-width="3" stroke-linecap="round"/>
<path d="M88.9395 34.2136C108.129 28.5627 123.615 24.3374 143.167 24.3374C156.043 24.3374 168.774 22.6914 181.665 22.6914C211.9 22.6914 238.508 41.7087 261.589 59.544C276.233 70.86 297.298 86.7884 300.27 106.273C302.107 118.313 301.935 131.572 301.276 143.765C300.798 152.606 284.569 155.715 278.232 157.665" stroke="white" stroke-width="3" stroke-linecap="round"/>
<path d="M85.6479 37.5059C68.9939 37.5059 51.1122 43.7905 35.9015 49.851C32.2412 51.3094 9.30063 59.3937 8.28488 65.4882C7.47506 70.3471 8.17665 76.9743 13.2229 78.6564" stroke="white" stroke-width="3" stroke-linecap="round"/>
<path d="M51.081 53.9658C33.6712 61.8002 17.2319 78.9133 13.5883 98.0426C11.9667 106.556 13.2225 116.115 13.2225 124.745" stroke="white" stroke-width="3" stroke-linecap="round"/>
<path d="M16.5146 77.0104C31.6337 52.2702 67.9132 36.7944 94.4263 29.2758C110.245 24.7899 87.2153 45.7649 84.1844 48.8451C78.2059 54.9208 69.9692 61.2064 67.1755 69.6947C64.4989 77.8274 67.0459 88.6522 63.8835 96.0311C62.4267 99.4303 60.9572 100.051 60.9572 104.627C60.9572 113.63 59.3112 97.5492 59.3112 96.0311C59.3112 79.8681 61.7387 69.6817 69.1873 55.6121" stroke="white" stroke-width="3" stroke-linecap="round"/>
<path d="M80.7101 40.7979C69.0387 58.7295 55.9966 76.2531 45.2292 94.7508C43.1589 98.3076 41.7322 101.982 41.1142 105.999C40.627 109.165 38.3457 133.801 35.536 132.609C26.3511 128.713 26.3503 102.453 29.9578 94.1106C38.1851 75.085 55.1078 60.7282 64.2499 42.4439" stroke="white" stroke-width="3" stroke-linecap="round"/>
<path d="M143.772 86.8877C99.2973 40.4799 80.6579 136.216 123.003 144.491C149.214 149.614 152.997 119.345 152.997 112.145C152.997 103.554 149.914 93.2972 143.772 86.8877Z" stroke="white" stroke-width="3" stroke-linecap="round"/>
<path d="M187.913 98.3263C250.2 94.9823 194.856 175.029 160.944 152.82C139.952 139.074 158.849 115.163 163.94 110.072C170.015 103.998 179.311 98.7882 187.913 98.3263Z" stroke="white" stroke-width="3" stroke-linecap="round"/>
<path d="M26.9625 93.9336C26.9625 111.842 24.5717 130.568 33.003 146.828C37.9243 156.319 45.6519 162.951 53.4506 169.969C59.9637 175.831 66.5399 180.113 74.1431 184.458C92.8862 195.168 117.092 196.784 138.139 196.784C160.94 196.784 183.741 196.784 206.542 196.784C232.468 196.784 258.139 199.115 280.946 184.417C290.532 178.24 301.729 173.008 310.209 165.357C314.421 161.558 317.983 157.067 321.963 153.032C323.479 151.495 325.016 150.191 325.963 148.297" stroke="white" stroke-width="3" stroke-linecap="round"/>
<path d="M15.943 100.545C13.8682 109.449 11.5854 122.352 15.0451 131.4C19.2023 142.273 28.1548 154.176 37.5742 160.949C43.9835 165.558 50.935 171.651 58.3891 174.418C64.2295 176.585 71.0803 176.862 77.1633 178.009C101.789 182.653 126.465 184.152 151.281 187.233C167.085 189.195 183.369 189.041 199.278 188.702C208.191 188.513 216.019 184.554 224.582 182.825C234.757 180.772 245.086 176.146 254.376 171.642C269.915 164.108 287.583 155.474 297.638 140.95C304.242 131.412 311.384 122.075 318.617 113.034" stroke="white" stroke-width="3" stroke-linecap="round"/>
<path d="M50.4707 102.749C45.2451 111.023 42.3896 119.097 42.3896 128.829C42.3896 138.026 53.0407 145.701 59.8171 150.338C63.7137 153.004 67.5177 155.798 71.4489 158.419C77.7571 162.624 85.1376 164.548 92.0598 167.479C101.422 171.445 110.329 174.22 120.18 176.703C130.2 179.228 140.141 183.519 150.382 184.948C167.098 187.28 183.753 190.38 200.583 191.804C215.871 193.098 231.108 193.358 246.458 193.11C263.234 192.84 279.862 184.253 294.781 177.275C308.311 170.946 321.802 161.705 328.901 148.297" stroke="white" stroke-width="3" stroke-linecap="round"/>
<path d="M60.0215 103.484C60.0215 114.092 61.0509 122.459 64.7967 132.544C67.0376 138.577 71.236 143.466 73.9389 149.277C76.8616 155.561 82.2811 162.476 87.2033 167.398C89.9325 170.128 93.5697 170.947 96.917 172.704C103.832 176.334 111.541 178.478 118.834 181.03C123.853 182.787 129.299 182.917 134.343 184.703C144.852 188.425 156.116 189.791 167.116 191.07C172.495 191.696 177.363 192.376 182.789 192.376C188.712 192.376 192.603 193.121 198.216 194.131C206.055 195.542 214.304 196.269 222.215 197.192C229.345 198.024 236.328 199.721 243.519 200.294C251.369 200.919 259.401 200.457 267.273 200.457C273.988 200.457 279.507 200.684 285.598 197.478C288.633 195.881 291.797 194.385 294.496 192.254C300.309 187.665 307.151 184.819 313.229 180.622C319.33 176.409 325.534 171.337 330.779 166.092C332.885 163.987 333.958 161.035 336.248 159.317" stroke="white" stroke-width="3" stroke-linecap="round"/>
<path d="M45.5371 121.512C54.6263 138.037 69.1946 150.307 86.7663 157.1C111.31 166.587 136.936 173.109 162.4 179.525C190.391 186.579 217.888 191.401 246.843 190.355C260.165 189.873 273.702 187.995 286.784 185.445C295.063 183.831 304.284 182.144 312.169 179.072C319.216 176.327 328.387 172.865 333.48 166.989C337.765 162.045 330.667 155.359 325.714 155.359" stroke="white" stroke-width="3" stroke-linecap="round"/>
<path d="M46.1641 132.794C46.5338 143.394 51.9081 151.627 59.6053 158.632C65.1936 163.718 71.7132 169.111 78.4788 172.596C89.8599 178.459 102.116 182.561 114.485 185.793C133.26 190.7 153.598 190.099 172.846 189.798C188.591 189.552 204.446 187.611 220.065 185.793C240.466 183.419 260.986 180.403 280.934 175.417C296.81 171.447 314.644 165.752 323.347 150.972C328.913 141.518 330.851 131.684 334.525 121.582C336.082 117.299 338.877 112.399 338.877 107.723" stroke="white" stroke-width="3" stroke-linecap="round"/>
<path d="M289.36 61.3398C298.939 64.8689 306.702 75.4212 312.413 83.4518C317.281 90.2981 318.193 98.031 319.133 106.121C320.78 120.285 322.787 134.696 316.034 147.838C313.362 153.037 308.775 157.567 304.334 161.314C298.316 166.391 291.737 170.923 284.938 174.859C281.916 176.609 279.519 178.89 276.198 180.117C272.146 181.615 268.346 183.07 264.149 184.192C253.475 187.044 242.763 190.296 231.695 191.086" stroke="white" stroke-width="3" stroke-linecap="round"/>
<path d="M34.255 125.899C33.9972 131.57 33.1377 136.64 36.4488 141.534C39.3796 145.867 43.3698 148.386 47.4177 151.598C55.93 158.352 64.389 165.2 73.1163 171.655C83.298 179.187 94.707 184.033 106.127 189.345C117.354 194.567 129.411 198.202 141.158 202.055C151.904 205.579 162.125 208.08 173.403 208.776C212.258 211.171 254.455 214.636 291.728 201.115C319.974 190.869 335.95 162.662 348.279 137.182" stroke="white" stroke-width="3" stroke-linecap="round"/>
<path d="M338.251 162.88C338.251 153.576 339.411 144.241 340.096 134.988C340.623 127.873 339.864 120.772 338.878 113.746C338.299 109.622 336.883 105.7 336.405 101.559C336.064 98.5983 335.958 95.5302 335.36 92.6094C334.014 86.029 332.347 78.6164 328.71 72.9002C325.565 67.9593 321.302 64.2879 317.566 59.9464C315.5 57.5448 312.71 56.4886 310.045 54.7928C305.92 52.1675 301.812 49.0589 297.509 46.7837C291.138 43.4152 284.998 39.6358 278.636 36.2675C270.832 32.1364 262.268 29.2545 253.877 26.5522C231.312 19.2855 206.258 16.9448 182.701 15.3743C165.18 14.2062 147.15 14.524 129.598 15.0958C112.94 15.6384 96.7965 18.2008 81.9612 26.1691C67.3303 34.0277 54.6128 44.1156 43.0303 55.6981" stroke="white" stroke-width="3" stroke-linecap="round"/>
<path d="M37.3896 71.3676C52.6325 52.2052 71.7302 34.5064 95.403 27.0045C108.214 22.9448 122.336 20.3792 135.796 20.0053C149.6 19.6218 163.306 17.917 177.13 17.4981C191.482 17.0632 205.346 19.3452 219.16 23.2437C228.198 25.7944 236.886 29.5199 245.834 32.3671C254.892 35.2491 264.477 37.1453 273.065 41.3163C283.272 46.2742 293.279 51.2305 302.211 58.3442C311.718 65.9166 322.146 75.3555 329.267 85.2964C336.318 95.1392 341.348 106.356 345.146 117.75" stroke="white" stroke-width="3" stroke-linecap="round"/>
<path d="M320.99 63.975C334.116 74.4024 345.035 91.6351 348.813 108.199C351.435 119.696 350.21 128.326 344.808 138.529C332.419 161.931 305.849 179.787 279.9 183.379C272.275 184.435 264.902 186.785 257.335 187.941C255.986 188.147 254.478 188.158 253.192 188.672C250.574 189.72 258.591 187.001 261.166 185.852C284.536 175.425 297.923 154.661 305.042 130.555C309.028 117.054 310.746 100.919 308.942 86.8879C307.735 77.5005 303.684 71.2653 298.147 64.0099C294.061 58.656 288.926 53.9906 283.87 49.5588C277.941 44.362 271.916 38.5799 265.519 33.9934C256.03 27.1901 242.466 23.0777 231.08 20.7262C218.414 18.1104 205.882 14.8053 193.263 11.9511C177.806 8.45476 160.534 6.15967 144.721 8.60816C122.667 12.023 100.839 14.2249 79.3257 20.7262C58.499 27.02 37.526 37.742 20.7551 51.7177C12.6544 58.4683 3.38304 68.5611 3.20489 79.7842C3.00477 92.3915 0.572341 105.452 5.85136 117.462C11.9 131.222 25.98 129.267 37.6786 135.116C38.8351 135.695 41.5636 136.305 42.0662 137.31" stroke="white" stroke-width="3" stroke-linecap="round"/>
<path d="M19.2126 144.077C12.5107 125.417 6.9635 106.373 7.96508 86.342C8.63547 72.9341 18.9375 59.2785 27.9877 50.0575C32.2559 45.7087 36.7611 41.3532 41.7772 37.8698C47.6033 33.8239 55.2739 31.2939 61.8694 28.7813C68.6944 26.1813 75.7862 25.148 83.0064 24.4982C88.8048 23.9763 94.9152 22.4785 100.696 22.4785" stroke="white" stroke-width="3" stroke-linecap="round"/>
<path d="M40.5234 63.847C41.9643 58.3654 42.9414 52.7516 46.5476 48.1771C51.5027 41.8915 58.2538 36.7344 64.272 31.5322C66.6144 29.5075 68.7796 27.8771 71.2364 26.2393" stroke="white" stroke-width="3" stroke-linecap="round"/>
<path d="M41.1504 52.5638C51.0566 42.6576 62.3494 34.0779 74.3705 26.8652" stroke="white" stroke-width="3" stroke-linecap="round"/>
</svg>
