<svg width="791" height="753" viewBox="0 0 791 753" fill="none" xmlns="http://www.w3.org/2000/svg">
<path d="M1.95605 751.083C1.95605 741.569 6.6395 734.902 12.6276 727.696C20.7707 717.897 27.6954 704.38 38.2849 696.816C49.2373 688.993 63.1826 683.647 76.6572 683.647C94.9523 683.647 113.317 684.116 131.605 683.647C146.388 683.268 157.497 673.321 169.069 665.256C183.369 655.289 198.418 646.395 213.117 636.987C224.085 629.968 244.631 634.603 257.053 634.603C267.384 634.603 277.715 634.603 288.046 634.603C307.417 634.603 317.937 618.926 333.116 609.06C348.167 599.277 364.253 591.258 379.549 582.154C386.765 577.858 394.267 575.089 400.438 569.211C403.694 566.111 407.566 564.393 411.336 562.059C415.474 559.498 416.606 552.882 418.716 548.663C423.956 538.182 420.873 521.615 420.873 510.177C420.873 495.864 422.522 485.192 428.366 471.691C443.732 436.189 466.299 403.385 484.789 369.403C489.751 360.283 492.875 349.755 500.796 342.61C505.559 338.314 513.007 336.898 518.507 333.755C540.352 321.272 547.765 308.734 545.413 284.03C544.584 275.332 538.017 268.156 537.466 259.054C535.864 232.621 552.555 206.776 561.42 182.536C567.928 164.742 576.652 147.275 581.855 129.065C584.244 120.704 583.626 108.031 588.44 100.57C591.757 95.427 607.158 100.973 612.961 98.0719C630.484 89.3107 644.096 73.5088 659.962 61.9701C670.518 54.2928 685.136 43.1885 692.204 31.7718C698.354 21.8368 715.564 15.5864 726.035 11.2233C737.495 6.44808 781.639 -7.8083 788.702 13.3803" stroke="white" stroke-width="3" stroke-linecap="round"/>
</svg>
