<svg width="349" height="307" viewBox="0 0 349 307" fill="none" xmlns="http://www.w3.org/2000/svg">
<path d="M239.394 149.772C240.227 116.184 240.227 116.184 240.227 116.184C241.425 107.797 269.009 127.103 275 131" stroke="white" stroke-width="3" stroke-linecap="round"/>
<path d="M240 150C275 131 240 150 275 131" stroke="white" stroke-width="3" stroke-linecap="round"/>
<path d="M239.5 150C245.489 155.369 269.5 157.5 269.5 157C272.139 148.557 270.5 149 275 131.5" stroke="white" stroke-width="3" stroke-linecap="round"/>
<path d="M239.957 155.72C239.957 162.371 233.727 281.436 232.957 287.72" stroke="white" stroke-width="3" stroke-linecap="round"/>
<path d="M143.957 141.72C157.5 87.0003 163.5 79.0001 163.5 79.0001C173.836 57.5724 205 27 270.5 39.0001C321 52.0001 319 52.5001 331.957 53.7204" stroke="white" stroke-width="3" stroke-linecap="round"/>
<path d="M210.01 305.171C218 288.5 123.41 116.26 121.122 112.101C119.825 109.742 116.815 108.271 115.674 105.989C115.435 105.51 114.321 103.721 114.844 103.278C116.217 102.117 121.5 98 121.897 96.9725C123 95.5 122.416 92.669 119.407 91.6071C113.337 89.4644 117.921 83.7328 120.403 79.9361C122.472 76.7718 126.612 74.1351 127.317 70.2563C127.619 68.597 128.866 68.0327 128.866 66.2461C128.866 63.7882 131.263 63.8627 133.07 62.7061C136.392 60.5799 137.548 54.3604 138.214 50.7861C138.318 50.2303 137.987 48.1579 138.656 47.9098C140.155 47.3548 141.757 47.8419 143.303 47.0801C145.63 45.9333 147.73 44.0381 149 41.7977C150.528 39.102 152.74 37.4716 153.95 34.4134C156.256 28.589 158.695 23.1161 161.39 17.4323C163.027 13.9799 164.498 14.3432 168.194 15.0539C171.318 15.6548 173.799 15.9389 177.154 15.9389C183.161 15.9389 188.013 14.7345 193.859 13.4498C198.083 12.5213 205.901 13.4778 208.268 9.21835C210.229 5.68887 213.092 6.65355 216.371 4.71034C218.886 3.22005 221.48 7.49553 223.7 7.91849C226.573 8.46571 229.044 5.92418 231.721 5.51238C233.057 5.30679 234.566 5.48472 235.924 5.48472C238.288 5.48472 240.15 4.83438 242.479 4.51674C249.514 3.55738 256.652 2 263.775 2C269.527 2 273.168 5.6838 277.686 8.96944C283.212 12.9885 286.947 15.4411 293.754 15.4411C295.554 15.4411 302.929 14.6054 303.102 16.1601C303.404 18.8748 305.745 20.8456 306.476 23.4061C307.576 27.2543 354.5 68.5 357.364 71.1966" stroke="white" stroke-width="3" stroke-linecap="round"/>
<path d="M155.957 143.605C172 138.5 205.113 127.307 211.351 124.72" stroke="white" stroke-width="3" stroke-linecap="round"/>
<path d="M291 56C287.256 61.0925 263.606 90.7681 260 96" stroke="white" stroke-width="3" stroke-linecap="round"/>
<path d="M281 134C293.854 139.071 367.55 167.691 373.854 170.571" stroke="white" stroke-width="3" stroke-linecap="round"/>
<path d="M99.0011 53.7477C97.7575 52.4659 59.8961 23.5994 61.0204 24.9871C61.0204 24.9871 63.1948 43.0924 62.392 42.7804C52.4526 38.9166 38.1369 30.092 28.1637 26.2151M28.1647 26.2155C37.1107 34.689 46.7612 43.5105 54 53.5C54.3623 54 23.8908 58.7337 18.265 59.5879C17 59.78 50.5504 74.4977 57.0572 77.0271C58 77.0271 43 89 43.9142 90.2335C45.365 91.0893 64.8162 95.6725 64.7123 96.1454C63 99.5 54.1118 114.416 52.1756 117.535C51.5762 118.5 76.5 112.5 75.9895 113.133C77.7646 114.2 75.5 128.603 76.8874 128.072C81 126.5 95.6919 111.394 99.0011 108" stroke="white" stroke-width="3" stroke-linecap="round"/>
<path d="M191.921 151.422C191.988 152.557 193.146 152.939 194.043 153.309C195.842 154.049 195.583 151.759 195.222 150.678C194.813 149.448 193.889 149.635 192.827 149.635C192.235 149.635 192.079 149.83 192.169 150.442C192.362 151.74 193.37 152.5 194.54 152.936C195.733 153.382 197.576 153.71 198.151 152.167C198.699 150.696 197.415 149.282 196.041 149.015C194.537 148.722 193.171 148.837 192.467 150.305C191.882 151.526 190.985 154.615 192.269 155.728C192.966 156.333 195.305 156.495 195.47 155.294C195.959 151.751 192.452 149.412 189.365 149.412C188.08 149.412 188.433 152.179 188.769 152.936C189.708 155.05 192.043 156.09 194.155 156.386C196.248 156.68 197.348 154.999 197.94 153.222C198.343 152.013 199.023 149.65 197.506 148.891C196.636 148.456 194.549 148.603 193.708 149.015C192.187 149.761 192.076 151.927 192.145 153.383C192.229 155.187 194.069 155.726 195.458 156.212C196.061 156.423 196.23 156.122 196.339 155.468C196.702 153.291 196.356 150.482 194.701 148.866C193.772 147.958 191.642 147.692 190.817 148.878C189.844 150.276 189.58 152.553 190.035 154.177C190.355 155.321 191.015 155.648 192.194 155.666C193.924 155.693 195.991 156.056 197.183 154.5C199.74 151.162 196.002 148.467 192.84 148.754C192.007 148.83 191.551 149.367 191.35 150.181C190.787 152.468 192.135 154.73 194.229 155.567C196.546 156.494 196.168 151.563 195.148 150.64C193.913 149.524 192.145 148.892 192.145 151.075C192.145 153.075 192.055 155.212 194.329 155.89C195.351 156.194 196.85 156.707 197.257 155.369C197.676 153.995 197.51 152.615 196.699 151.435C195.598 149.833 194.476 147.932 192.343 148.32C189.716 148.797 187.381 154.362 190.134 155.84C191.446 156.545 192.911 156.698 194.378 156.535C196.766 156.27 197.589 153.362 198.151 151.435C198.44 150.443 198.953 147.727 197.952 147.004C196.916 146.256 195.638 146.098 194.428 145.888C193.05 145.648 191.128 146.02 190.457 147.402C189.573 149.221 190.939 151.493 192.393 152.427C193.267 152.99 194.477 152.997 195.47 152.986C196.337 152.976 198.609 153.183 199.144 152.266C199.623 151.445 198.218 149.891 197.679 149.412C195.961 147.885 193.439 147.841 191.251 148.084C189.622 148.265 187.677 149.482 187.677 151.211C187.677 152.767 187.485 153.767 188.968 154.624C190.002 155.222 191.242 155.443 192.418 155.443C195.277 155.443 197.306 154.405 197.518 151.323C197.612 149.962 197.927 148.85 196.612 147.948C195.687 147.313 194.714 146.955 193.609 146.955C191.118 146.955 189.808 148.103 189.129 150.442C188.392 152.98 188.485 155.578 191.35 156.734C192.447 157.176 193.853 157.496 195.049 157.453C195.888 157.423 196.197 156.697 196.662 156.113C197.504 155.056 199.928 152.101 198.387 150.752C196.901 149.452 195.403 149.189 193.485 149.189" stroke="white" stroke-width="3" stroke-linecap="round"/>
<path d="M289.745 89.5961C289.757 90.4127 289.488 92.2506 290.594 92.527C290.907 92.6053 292.67 93.0143 291.838 92.3642C291.269 91.9197 290.813 91.7808 291.861 92.1083C293.385 92.5844 295.028 92.4852 295.909 91.0267C296.302 90.3751 297.766 87.778 296.816 87.084C296.369 86.7571 295.066 86.4912 294.56 86.7584C292.306 87.948 293.389 91.6225 294.571 93.1201C295.079 93.7629 296.583 95.0026 297.491 94.2715C299.086 92.9865 297.963 89.9536 296.444 89.224C295.999 89.0105 295.165 88.6495 294.653 88.8518C294.211 89.0262 294.426 89.414 294.699 89.5961C294.9 89.7297 297.049 90.6049 297.049 90.0963C297.049 89.1967 295.049 88.8832 294.443 88.8053C293.232 88.6496 292.208 89.0444 291.257 89.8055C288.936 91.6623 293.124 94.122 294.734 94.3762C295.339 94.4717 296.848 94.1742 297.025 93.4341C297.465 91.5949 296.76 90.0283 295.49 88.7588C294.192 87.4604 291.949 87.2167 290.803 88.8634C289.341 90.9649 290.763 93.9229 292.931 94.7833C296.19 96.0764 299.555 93.5828 300.084 90.3521C300.155 89.9207 300.576 88.011 299.956 87.7586C299.071 87.3979 298.32 86.8607 297.328 86.8747C295.666 86.8981 292.912 87.103 291.652 88.3633C290.924 89.0913 290.977 90.4724 291.047 91.4105C291.128 92.4801 291.555 92.7249 292.362 93.2713C293.365 93.951 294.183 94.2451 295.397 94.2017C297.878 94.1132 298.7 91.2791 299.072 89.2705C299.404 87.4797 299.813 85.3144 298.2 84.0601C297.216 83.2948 296.162 83.1064 294.967 83.1064C292.828 83.1064 290.466 84.7919 289.652 86.77C289.284 87.6622 289.509 89.0726 289.535 90.0148C289.57 91.2471 290.462 92.3831 291.21 93.3178C292.409 94.8165 295.278 95.2067 296.839 93.9924C298.707 92.5399 296.512 90.0772 295.188 89.1775C294.984 89.0388 292.899 88.1737 292.943 88.3517C293.063 88.8308 295.062 89.226 295.513 89.1658C296.667 89.012 296.874 88.0523 296.862 87.0142C296.847 85.6328 295.839 85.2196 294.653 85.0371C293.832 84.9108 291.963 84.6948 291.431 85.5372C290.264 87.3844 290.278 89.6084 290.373 91.7361C290.454 93.557 293.599 93.3644 294.862 93.3644C297.537 93.3644 298.95 91.706 299.212 89.1775C299.322 88.1078 299.923 85.6058 297.991 86.0605C296.694 86.3656 294.783 87.5048 293.885 88.5029C293.513 88.9165 293.699 90.0192 293.734 90.5266C293.814 91.6841 294.718 92.4631 295.699 92.934C296.191 93.17 297.098 93.5179 297.653 93.3178C298.386 93.0539 298.26 90.585 298.072 90.0148C297.609 88.6085 296.592 87.9214 295.199 87.9214C294.628 87.9214 293.722 87.6343 293.722 88.375C293.722 90.6707 295.019 92.9457 297.491 92.9457" stroke="white" stroke-width="3" stroke-linecap="round"/>
</svg>
