<svg width="360" height="370" viewBox="0 0 360 370" fill="none" xmlns="http://www.w3.org/2000/svg">
<path d="M46.9606 286.253C46.9606 286.253 -4.36935 223.693 3.17983 105.437C7.98325 30.1931 121.252 -29.1103 188.887 20.7258C252.845 67.8527 298.572 188.879 298.572 188.879" stroke="white" stroke-width="3" stroke-linecap="round"/>
<path d="M109.061 134.191C109.061 128.933 110.711 107.469 114.882 108.721C121.168 110.606 130.007 115.469 134.725 119.813" stroke="white" stroke-width="3" stroke-linecap="round"/>
<path d="M109.061 134.616C134.996 120.087 108.945 134.656 134.881 120.126" stroke="white" stroke-width="3" stroke-linecap="round"/>
<path d="M109.305 135.043C112.856 139.563 136.231 149.359 136.231 147.015C136.231 140.899 136.819 134.13 134.928 120.436" stroke="white" stroke-width="3" stroke-linecap="round"/>
<path d="M35.0312 309.481C46.1056 296.561 74.6553 240.772 104.686 226.024C135.136 211.072 161.807 230.829 161.079 230.93C114.606 237.407 114.606 250.201 114.606 259.019C114.606 284.747 161.079 296.649 181.943 297.89C185.376 298.653 177.591 299.956 177.468 299.993C152.022 307.532 154.989 310.794 156.227 311.422C163.537 315.132 162.297 315.774 156.82 320.156C154.803 321.77 153.844 325.721 152.022 326.733C147.793 329.082 143.469 331.487 139.784 334.712C137.358 336.835 134.851 338.729 132.559 341.02C131.355 342.224 127.687 343.983 126.894 345.436C124.902 349.089 126.653 351.098 122.37 353.366C119.686 354.787 116.731 355.824 114.013 357.032C105.079 361.003 96.7162 362.855 87.003 362.855C81.8633 362.855 73.1032 360.922 68.511 362.963C65.4871 364.306 62.1056 367.57 58.5372 367.707C51.5195 367.977 46.0505 364.968 39.8834 361.884" stroke="white" stroke-width="3" stroke-linecap="round"/>
<path d="M319.385 193.856C302.449 192.2 243.223 171.71 211.343 181.86C179.019 192.152 173.453 224.873 174.048 224.443C212.066 196.941 220.924 206.174 227.029 212.536C244.841 231.101 219.548 271.864 205.352 287.204C203.403 290.131 209.923 285.682 210.036 285.623C233.618 273.446 233.735 277.854 233.277 279.164C230.57 286.902 231.91 286.507 238.896 285.877C241.469 285.645 244.896 287.832 246.912 287.301C251.589 286.069 256.375 284.81 261.267 284.586C264.486 284.438 267.607 284.069 270.847 284.136C272.549 284.171 276.414 282.9 277.992 283.4C281.959 284.656 282.086 287.319 286.747 285.99C289.667 285.157 292.518 283.859 295.315 282.85C304.511 279.529 311.827 275.076 318.836 268.351C322.544 264.792 327.527 257.333 332.254 255.626C335.366 254.502 340.065 254.516 342.735 252.144C347.986 247.48 349.849 241.523 352.164 235.028" stroke="white" stroke-width="3" stroke-linecap="round"/>
<path d="M71.8649 148.135C71.8649 158.423 63.5256 166.762 53.2385 166.762C47.9588 166.762 44.1353 165.279 41.624 162.693C39.1059 160.101 37.6943 156.181 37.6943 150.879C37.6943 145.638 39.3527 141.272 42.2033 138.231C45.0439 135.2 49.1744 133.368 54.3599 133.368C59.7124 133.368 64.0888 134.612 67.0963 137.007C70.0514 139.36 71.8649 142.967 71.8649 148.135Z" stroke="white" stroke-width="3"/>
<path d="M54.2846 149.468C54.003 149.532 53.9328 149.689 53.9328 149.971C53.9328 150.177 53.8917 150.437 54.0082 150.619C54.1378 150.82 54.8866 150.761 55.0886 150.714C55.5176 150.612 55.8424 150.175 55.8424 149.748C55.8424 149.515 55.9587 148.973 55.6805 148.877C55.3456 148.761 54.8785 148.76 54.6364 149.016C54.4953 149.165 54.217 149.921 54.5861 149.921" stroke="white" stroke-width="3" stroke-linecap="round"/>
<path d="M173.681 108.529C182.954 112.982 194.081 109.075 198.535 99.8021C200.82 95.0428 201.139 90.9542 199.895 87.5712C198.649 84.1789 195.726 81.2096 190.946 78.9141C186.222 76.6451 181.569 76.2503 177.593 77.5032C173.631 78.7516 170.192 81.6821 167.947 86.3565C165.63 91.1814 164.856 95.6648 165.713 99.4127C166.556 103.095 169.022 106.292 173.681 108.529Z" stroke="white" stroke-width="3"/>
<path d="M182.323 93.3668C182.041 93.4302 181.971 93.5872 181.971 93.8694C181.971 94.0751 181.93 94.3358 182.046 94.5171C182.176 94.7187 182.925 94.6599 183.127 94.612C183.556 94.5104 183.881 94.0735 183.881 93.646C183.881 93.413 183.997 92.8713 183.719 92.775C183.384 92.6591 182.917 92.6582 182.674 92.9146C182.533 93.0639 182.255 93.8191 182.624 93.8191" stroke="white" stroke-width="3" stroke-linecap="round"/>
</svg>
