<svg width="312" height="289" viewBox="0 0 312 289" fill="none" xmlns="http://www.w3.org/2000/svg">
<path d="M1.5 272.53C118 34 118.672 35.8558 134 22.0001C188.595 -27.3501 295 -3.00009 236.091 272.53C235.329 276.093 232.693 283.073 231.362 287.068" stroke="white" stroke-width="3" stroke-linecap="round"/>
<path d="M152 92.9997C154.5 89 171.317 90.1965 171.317 90.1965C171.317 90.1965 187 92.9997 188 101" stroke="white" stroke-width="3" stroke-linecap="round"/>
<path d="M152 93.5C147 101.5 159.5 144.5 159.5 144.5C159.5 148.349 187.5 114.5 187.5 101.5" stroke="white" stroke-width="3" stroke-linecap="round"/>
<path d="M152.001 92.9997C149.468 79.4637 165.001 69.4999 170.501 90.0003" stroke="white" stroke-width="3" stroke-linecap="round"/>
<path d="M171.216 89.6338C177.724 77.4976 196.073 79.4657 187.513 98.8887" stroke="white" stroke-width="3" stroke-linecap="round"/>
<path d="M280.745 9.36489C339.498 35.4484 271.148 37.0982 283.069 71.715" stroke="white" stroke-width="3" stroke-linecap="round"/>
<path d="M284 83V84" stroke="white" stroke-width="3" stroke-linecap="round"/>
<circle cx="140" cy="62" r="16.5" stroke="white" stroke-width="3"/>
<circle cx="214" cy="74" r="16.5" stroke="white" stroke-width="3"/>
<path d="M139.219 61.189C138.968 61.2457 138.905 61.3861 138.905 61.6384C138.905 61.8224 138.868 62.0556 138.972 62.2177C139.088 62.398 139.758 62.3454 139.938 62.3026C140.322 62.2117 140.613 61.821 140.613 61.4387C140.613 61.2302 140.717 60.7458 140.468 60.6597C140.168 60.556 139.751 60.5552 139.534 60.7845C139.408 60.918 139.159 61.5935 139.489 61.5935" stroke="white" stroke-width="3" stroke-linecap="round"/>
<path d="M213.921 72.7703C212.75 72.8679 214.066 74.4263 214.527 73.6107C214.608 73.4676 215.117 72.3659 214.77 72.3659C214.464 72.3659 214.163 72.2453 214.163 72.6086" stroke="white" stroke-width="3" stroke-linecap="round"/>
</svg>
