<svg width="335" height="177" viewBox="0 0 335 177" fill="none" xmlns="http://www.w3.org/2000/svg">
<path d="M307.867 47.1904C307.867 57.4986 306.414 68.0005 311.003 77.435C314.812 85.2632 320.127 84.2663 326.014 89.5328C335.129 97.6883 332.063 114.053 332.063 125.826" stroke="white" stroke-width="3" stroke-linecap="round"/>
<path d="M60 174C94.5 45.4999 132 14.785 144.127 10.4731C164.412 3.26072 204 -10.5 248.032 26.35C267.33 42.5 316.735 167.496 317.625 174.622" stroke="white" stroke-width="3" stroke-linecap="round"/>
<path d="M153.957 90.162C153.957 90.162 158.693 71.4456 173.931 66.3353C180.713 64.3532 197.124 70.0589 199.341 90.711" stroke="white" stroke-width="3" stroke-linecap="round"/>
<path d="M153.957 90.7109C153.957 90.7109 183.747 91.0405 199.161 91.2109" stroke="white" stroke-width="3" stroke-linecap="round"/>
<path d="M154.072 91.1633C154.072 91.1633 165.125 110.58 176.829 112.267C181.055 112.876 199.288 101.538 199.288 90.9678" stroke="white" stroke-width="3" stroke-linecap="round"/>
<path d="M127.07 51.7642C118.394 59.4614 113.5 61.9997 63.5 173.5" stroke="white" stroke-width="3" stroke-linecap="round"/>
<path d="M124 54.5001C169.474 12.5949 217.162 36.0718 237.794 55.8117C258.426 75.5515 249.562 71.0049 315.198 174.699" stroke="white" stroke-width="3" stroke-linecap="round"/>
<path d="M100.655 94.0244C100.655 96.8704 103.039 101.76 105.211 103.932C107.227 105.948 109.985 107.123 111.791 109.316C114.31 112.374 119.145 111.335 122.784 111.335C124.922 111.335 127.733 110.855 129.813 111.41C132.283 112.068 134.416 115.797 135.795 117.728C137.231 119.738 138.106 121.945 139.871 123.711C141.457 125.297 142.443 125.074 144.619 125.618C149.712 126.891 152.919 133.503 154.191 137.956C155.279 141.764 157.854 145.069 159.388 148.649C161.472 153.511 164.436 159.219 164.436 164.577C164.436 171.056 167.325 173 173.185 174.598" stroke="white" stroke-width="3" stroke-linecap="round"/>
<path d="M265.926 94.9468C264.041 104.081 264.041 104.081 264.041 104.081C264.041 110.306 260.519 112.162 254.768 114.55C251.342 115.974 247.453 114.947 244.224 116.121C242.026 116.92 239.774 118.297 237.42 119.112C232.082 120.959 227.401 123.937 223.062 127.487C221.027 129.152 220.159 131.305 218.949 133.544C217.612 136.018 215.31 137.744 213.939 140.237C211.659 144.382 210.611 149.612 207.807 153.435C205.493 156.592 204.532 158.867 203.096 162.558C201.722 166.092 198.086 170.041 198.086 173.925" stroke="white" stroke-width="3" stroke-linecap="round"/>
<path d="M102.444 134.965C98.3388 135.878 98.3207 136.853 92.1413 143.677C88.869 147.964 90.2949 150.254 90.4044 153.211C90.6305 159.316 98.6996 159.792 103.042 159.792C108.751 159.792 113.075 158.94 118.521 157.249C121.834 156.221 125.735 157.811 129.102 157.062C131.016 156.637 131.956 150.676 131.956 149.146C131.956 147.343 130.243 141.211 127.971 140.378C123.642 138.791 119.211 139.747 114.782 138.555C114.782 138.555 109.338 132.008 102.444 134.965Z" stroke="white" stroke-width="3" stroke-linecap="round"/>
<path d="M261.723 139.003C255.288 137.777 253.143 139.003 244.524 145.658C240.982 147.429 236.591 152.459 234.728 155.903C230.167 164.333 244.582 161.745 249.684 162.334C254.317 162.869 289.607 168.014 290.924 159.455C291.462 155.959 287.174 153.862 284.269 153.136C279.717 151.998 281.418 143.639 277.127 143.639C274.603 143.639 271.975 143.853 269.463 143.602C266.346 143.29 264.77 139.583 261.723 139.003Z" stroke="white" stroke-width="3" stroke-linecap="round"/>
<path d="M115.204 70.2749C120.438 70.2749 134.733 61.2991 139.401 59.2017" stroke="white" stroke-width="3" stroke-linecap="round"/>
<path d="M248.336 70.2749C243.102 70.2749 228.807 61.2991 224.139 59.2017" stroke="white" stroke-width="3" stroke-linecap="round"/>
<path d="M56.2855 88.2451C51.6307 94.9169 44.4777 98.9191 41.4312 106.97C39.6352 111.717 41.5746 117.575 41.7013 122.455C41.9123 130.579 42.5437 133.719 36.1197 140.64C25.9561 151.591 14.4055 160.998 2 169.268" stroke="white" stroke-width="3" stroke-linecap="round"/>
<path d="M51.4239 142.531C51.2859 145.43 50.5997 148.179 48.9932 150.633C48.0816 152.026 44.4019 154.369 45.0321 156.26C46.0676 159.366 47.265 160.625 45.7523 164.407" stroke="white" stroke-width="3" stroke-linecap="round"/>
<path d="M129.852 67.1266C129.852 68.3094 129.779 69.4873 129.779 70.6708C129.779 71.4773 129.698 72.3667 129.999 73.1371C130.198 73.6446 130.672 73.9481 131.085 74.2559C131.714 74.724 132.247 75.1952 133.012 75.4318C133.61 75.6164 133.961 75.3999 134.172 74.7949C134.705 73.2708 134.886 71.6504 134.981 70.0502C135.058 68.7431 135.144 67.4669 135.144 66.1548C135.144 65.5687 135.107 65.0164 134.997 64.4398C134.938 64.1319 134.947 63.7886 134.703 63.562C134.343 63.2274 133.838 63.1577 133.347 63.1577C132.737 63.1577 132.382 64.2836 132.171 64.7053C131.501 66.0467 131.13 67.6214 130.738 69.0661C130.455 70.1109 130.403 71.2337 130.444 72.3123C130.464 72.8391 130.616 73.4348 131.175 73.5944C131.937 73.8122 132.092 72.7279 132.204 72.1489C132.53 70.4636 132.558 68.7773 132.682 67.0735C132.733 66.3691 133.097 64.9952 132.073 64.9952C131.63 64.9952 131.201 64.9083 130.84 65.1993C130.487 65.4839 130.363 65.957 130.203 66.359C129.934 67.0363 129.76 67.7998 129.664 68.5231C129.44 70.2131 129.283 72.1375 129.689 73.7986C129.869 74.5352 130.63 75.624 131.379 75.8565C132.175 76.1035 133.058 75.9642 133.637 75.3543C134.228 74.7327 134.406 73.8924 134.707 73.1207C135.11 72.089 135.231 70.9335 135.397 69.8419C135.664 68.0851 135.583 66.2083 134.809 64.5909C134.608 64.1698 134.611 64.1936 134.258 63.9948C133.757 63.713 133.147 63.8192 132.576 63.8192C130.835 63.8192 130.881 66.0929 130.881 67.3471" stroke="white" stroke-width="3" stroke-linecap="round"/>
<path d="M233.688 67.1266C233.688 68.3094 233.761 69.4873 233.761 70.6708C233.761 71.4773 233.842 72.3667 233.541 73.1371C233.342 73.6446 232.868 73.9481 232.455 74.2559C231.826 74.724 231.293 75.1952 230.528 75.4318C229.93 75.6164 229.579 75.3999 229.368 74.7949C228.835 73.2708 228.654 71.6504 228.559 70.0502C228.482 68.7431 228.396 67.4669 228.396 66.1548C228.396 65.5687 228.433 65.0164 228.543 64.4398C228.602 64.1319 228.593 63.7886 228.837 63.562C229.197 63.2274 229.702 63.1577 230.193 63.1577C230.803 63.1577 231.158 64.2836 231.369 64.7053C232.039 66.0467 232.41 67.6214 232.802 69.0661C233.085 70.1109 233.137 71.2337 233.096 72.3123C233.076 72.8391 232.924 73.4348 232.365 73.5944C231.603 73.8122 231.448 72.7279 231.336 72.1489C231.01 70.4636 230.982 68.7773 230.858 67.0735C230.807 66.3691 230.443 64.9952 231.467 64.9952C231.91 64.9952 232.339 64.9083 232.7 65.1993C233.053 65.4839 233.177 65.957 233.337 66.359C233.606 67.0363 233.78 67.7998 233.876 68.5231C234.1 70.2131 234.257 72.1375 233.851 73.7986C233.671 74.5352 232.91 75.624 232.161 75.8565C231.365 76.1035 230.482 75.9642 229.903 75.3543C229.312 74.7327 229.134 73.8924 228.833 73.1207C228.43 72.089 228.309 70.9335 228.143 69.8419C227.876 68.0851 227.957 66.2083 228.731 64.5909C228.932 64.1698 228.929 64.1936 229.282 63.9948C229.783 63.713 230.393 63.8192 230.964 63.8192C232.705 63.8192 232.659 66.0929 232.659 67.3471" stroke="white" stroke-width="3" stroke-linecap="round"/>
</svg>
