<svg width="376" height="470" viewBox="0 0 376 470" fill="none" xmlns="http://www.w3.org/2000/svg">
<path d="M-21.7686 228.431C260.828 209.895 139.027 112.317 226.011 18.9625C258.256 -15.644 310.781 5.86592 318.448 62.7947C321.579 86.0416 316.831 96.7881 324.753 134.201" stroke="white" stroke-width="3" stroke-linecap="round"/>
<path d="M324.777 134.475C324.777 134.475 392.877 388.595 139.594 408.979C9.39165 419.457 -12.6162 378.414 -12.6162 378.414" stroke="white" stroke-width="3" stroke-linecap="round"/>
<path d="M313.09 40.3691C329.808 45.8877 352.046 53.0296 373.796 59.0354" stroke="white" stroke-width="3" stroke-linecap="round"/>
<path d="M319.258 61.4701C327.481 61.2131 364.392 60.085 372.499 58.7109" stroke="white" stroke-width="3" stroke-linecap="round"/>
<path d="M373.958 59.3594C366.816 61.7947 325.702 74.4781 320.917 75.9505" stroke="white" stroke-width="3" stroke-linecap="round"/>
<path d="M192.059 100.26C206.645 107.946 225.317 109.029 229.952 109.544" stroke="white" stroke-width="3" stroke-linecap="round"/>
<path d="M188.774 112.265C215.519 121.077 223.018 121.154 232.757 121.154" stroke="white" stroke-width="3" stroke-linecap="round"/>
<path d="M188.946 120.714C188.946 120.714 210.386 127.878 225.362 126.55" stroke="white" stroke-width="3" stroke-linecap="round"/>
<path d="M187.354 128.244C192.182 132.487 200.01 131.902 200.01 131.902" stroke="white" stroke-width="3" stroke-linecap="round"/>
<path d="M182.795 134.65C198.394 143.564 218.284 142.303 235.515 142.303" stroke="white" stroke-width="3" stroke-linecap="round"/>
<path d="M209.155 133.365C209.155 133.365 217.203 136.291 231.03 133.803" stroke="white" stroke-width="3" stroke-linecap="round"/>
<path d="M172.128 159.663C172.128 165.051 172.436 177.615 189.664 167.466" stroke="white" stroke-width="3" stroke-linecap="round"/>
<path d="M164.957 170.594C165.606 175.943 164.404 184.034 179.698 171.956" stroke="white" stroke-width="3" stroke-linecap="round"/>
<path d="M171.521 186.019C172.17 191.368 184.897 203.263 192.735 182.78" stroke="white" stroke-width="3" stroke-linecap="round"/>
<path d="M179.859 173.078C182.226 177.918 187.159 191.748 197.644 175.321" stroke="white" stroke-width="3" stroke-linecap="round"/>
<path d="M156.473 182.048C159.549 194.967 172.88 191.14 174.03 178.391" stroke="white" stroke-width="3" stroke-linecap="round"/>
<path d="M192.631 182.466C193.571 187.9 194.199 208.384 210.396 188.528" stroke="white" stroke-width="3" stroke-linecap="round"/>
<path d="M166.561 190.764C152.529 231.664 191.145 214.26 195.714 195.659" stroke="white" stroke-width="3" stroke-linecap="round"/>
<path d="M145.458 189.023C140.563 195.115 143.064 222.745 166.997 190.546" stroke="white" stroke-width="3" stroke-linecap="round"/>
<path d="M195.714 197.834C198.124 205.654 187.99 240.693 223.779 214.804" stroke="white" stroke-width="3" stroke-linecap="round"/>
<path d="M179.851 214.226C177.757 222.697 168.884 250.299 204.672 224.409" stroke="white" stroke-width="3" stroke-linecap="round"/>
<path d="M147.178 205.952C145.084 214.424 142.152 241.813 177.94 215.923" stroke="white" stroke-width="3" stroke-linecap="round"/>
<path d="M125.113 200.798C88.5278 241.606 138.662 232.002 150.272 225.904" stroke="white" stroke-width="3" stroke-linecap="round"/>
<path d="M150.021 226.304C129.77 271.261 173.412 261.4 178.956 235.949" stroke="white" stroke-width="3" stroke-linecap="round"/>
<path d="M180.059 235.746C179.723 239.193 176.641 280.298 227.296 248.928" stroke="white" stroke-width="3" stroke-linecap="round"/>
<path d="M110.813 228.747C82.2221 255.76 101.356 280.973 148.181 258.011" stroke="white" stroke-width="3" stroke-linecap="round"/>
<path d="M73.9841 217.198C73.9841 217.198 62.8203 228.871 111.706 227.687" stroke="white" stroke-width="3" stroke-linecap="round"/>
<path d="M-3.82985 228.338C-3.82985 228.338 -10.9138 240.466 37.9722 239.282" stroke="white" stroke-width="3" stroke-linecap="round"/>
<path d="M96.3394 249.793C62.9926 279.656 60.0067 352.819 146.608 286.126" stroke="white" stroke-width="3" stroke-linecap="round"/>
<path d="M149.819 257.812C133.758 317.909 188.156 304.18 199.813 262.475" stroke="white" stroke-width="3" stroke-linecap="round"/>
<path d="M72.743 221.273C9.38622 236.347 41.6529 284.63 97.4734 248.83" stroke="white" stroke-width="3" stroke-linecap="round"/>
<path d="M187.67 325.445C178.213 334.653 101.316 352.073 147.106 286.126" stroke="white" stroke-width="3" stroke-linecap="round"/>
<path d="M193.02 278.116C182.569 296.695 200.847 310.378 200.847 310.378" stroke="white" stroke-width="3" stroke-linecap="round"/>
<path d="M104.077 349.17C101.003 369.873 109.205 366.555 109.205 366.555" stroke="white" stroke-width="3" stroke-linecap="round"/>
<path d="M55.1015 347.479C3.96189 377.66 26.7714 376.691 26.7714 376.691" stroke="white" stroke-width="3" stroke-linecap="round"/>
<path d="M75.1937 283.577C-5.31008 397.617 146.978 334.464 146.978 334.464" stroke="white" stroke-width="3" stroke-linecap="round"/>
<path d="M31.0215 280.94C-61.3897 371.429 54.846 346.178 54.846 346.178" stroke="white" stroke-width="3" stroke-linecap="round"/>
<path d="M168.84 406.001C227.208 415.61 168.84 406.001 227.208 415.61" stroke="white" stroke-width="3" stroke-linecap="round"/>
<path d="M226.996 415.793C223.771 415.793 212.534 413.087 206.082 420.787" stroke="white" stroke-width="3" stroke-linecap="round"/>
<path d="M226.134 415.761C240.33 417.033 253.339 426.246 260.226 431.534" stroke="white" stroke-width="3" stroke-linecap="round"/>
<path d="M227.412 415.58C307.21 420.003 301.084 437.23 301.084 437.23" stroke="white" stroke-width="3" stroke-linecap="round"/>
<path d="M229.896 415.703C235.771 414.799 242.464 413.77 256.143 414.357" stroke="white" stroke-width="3" stroke-linecap="round"/>
<path d="M105.475 410.69C163.236 433.217 105.475 410.69 163.236 433.217" stroke="white" stroke-width="3" stroke-linecap="round"/>
<path d="M162.979 433.357C159.672 432.657 148.737 427.443 140.45 433.937" stroke="white" stroke-width="3" stroke-linecap="round"/>
<path d="M162.101 433.138C176.381 437.525 187.718 449.796 193.632 456.714" stroke="white" stroke-width="3" stroke-linecap="round"/>
<path d="M163.451 433.23C244.311 455.093 236.666 467.697 236.666 467.697" stroke="white" stroke-width="3" stroke-linecap="round"/>
<path d="M165.971 433.895C172.192 434.244 179.278 434.642 193.176 438.214" stroke="white" stroke-width="3" stroke-linecap="round"/>
<path d="M261.939 56.2646C261.939 56.734 261.768 57.6249 262.468 57.6249C263.03 57.6249 262.64 55.9292 262.449 55.6412C262.369 55.5205 261.749 54.858 261.58 55.0461C261.213 55.4553 261.344 56.3033 261.344 56.8031C261.344 57.579 261.669 57.5907 262.364 57.5399C263.676 57.4439 264.561 55.8383 264.574 54.6871C264.58 54.2348 264.603 53.7953 264.064 53.6669C263.532 53.5401 262.81 53.6095 262.307 53.7992C261.056 54.2721 260.754 56.1587 261.079 57.2943C261.231 57.8228 261.754 58.1172 262.279 58.135C263.273 58.1687 263.772 57.7982 264.522 57.1668C265.35 56.4703 266.45 55.0112 264.763 54.6588C263.978 54.4947 263.143 54.5643 262.345 54.5643C261.911 54.5643 261.861 54.5858 261.774 55.0744C261.577 56.173 261.525 57.6074 261.741 58.7065C261.838 59.2001 262.155 59.5029 262.671 59.3961C264.047 59.1115 265.492 57.2516 265.585 55.8821C265.624 55.306 265.666 54.6516 265.094 54.3471C264.695 54.135 264.067 53.8256 263.592 53.8889C263.022 53.965 262.679 54.7698 262.454 55.202C261.993 56.0861 261.763 56.894 261.604 57.8752C261.498 58.527 261.386 59.3592 262.1 59.6936C262.441 59.8537 262.821 59.8587 263.191 59.8259C265.199 59.6473 267.754 56.3436 266.133 54.5643C264.916 53.2291 263.484 52.9035 261.75 53.0529C259.916 53.211 259.822 55.1162 259.814 56.6142C259.808 57.5363 259.774 58.3835 260.465 59.0891C261.052 59.6877 261.697 59.7455 262.496 59.7503C263.6 59.7569 264.797 59.8591 265.802 59.3158C266.945 58.6984 267.888 57.7293 268.051 56.3969C268.196 55.2067 267.531 54.6632 266.492 54.3376C265.804 54.1219 264.111 53.3302 263.384 53.8086C262.683 54.2699 262.328 55.5806 262.175 56.3497C262.068 56.8898 261.854 57.7669 262.26 58.2483C262.894 58.9997 264.58 57.6455 264.829 57.1431C265.913 54.9577 264.745 52.6864 262.473 51.9288C261.793 51.7023 261.213 53.3043 260.994 53.7425C260.304 55.1235 259.868 56.5623 259.913 58.1208C259.961 59.8272 262.116 60.067 263.427 59.7267C265.645 59.1505 266.868 56.3761 266.086 54.2809C265.804 53.526 265.054 52.4624 264.126 52.5287C262.295 52.6594 261.174 54.9555 261.174 56.5622C261.174 57.1378 261.312 57.9076 261.967 58.0878C262.773 58.3095 263.807 58.3179 264.56 57.9413C266.107 57.168 266.822 55.0978 266.043 53.5158C265.592 52.6 264.986 52.2863 264.149 51.8911C263.006 51.3513 261.645 52.4342 261.07 53.3836C260.304 54.6472 259.85 57.0157 260.9 58.2295C261.692 59.1448 262.973 59.0852 264.074 59.0702C265.547 59.05 266.96 58.3993 267.257 56.8598C267.358 56.3396 267.295 55.7616 267.295 55.235C267.295 53.8108 267.127 52.5637 266.35 51.3337C265.84 50.5253 265.281 49.6895 264.678 48.9439C264.073 48.1939 263.052 49.1549 262.534 49.5673C261.947 50.0348 261.167 50.5434 260.834 51.2487C260.685 51.5634 260.704 51.9346 260.626 52.2689C260.177 54.1963 260.458 56.3952 261.571 58.05C262.352 59.2117 263.268 60.1631 264.74 60.0856C265.436 60.049 266.007 59.512 266.487 59.056C267.236 58.3452 267.651 57.5158 268.013 56.5669C268.473 55.3621 268.444 54.2342 267.758 53.1616C267.4 52.6018 267.005 52.0614 266.568 51.5841C266.324 51.3188 265.396 51.1364 265.051 51.0834C264.587 51.012 264.003 51.0393 263.625 51.3148C262.859 51.8735 262.261 52.6828 261.66 53.4072C261.272 53.8755 260.98 54.4491 260.796 55.0272C260.506 55.9365 260.261 56.8983 260.324 57.8611C260.362 58.4427 261.017 59.3413 261.467 59.6842C262.535 60.4998 263.983 59.9012 264.952 59.278C267.065 57.9195 268.315 55.8096 268.315 53.308C268.315 52.8775 268.459 52.1952 268.164 51.8627C267.972 51.6472 267.938 51.1825 267.786 50.9087C267.543 50.4719 267.132 50.3253 266.785 50.0113C266.602 49.8457 266.282 49.667 266.039 49.6334C265.833 49.6051 265.728 49.393 265.519 49.3831C264.215 49.321 262.399 49.3369 261.301 50.1907C260.812 50.5714 260.708 51.4718 260.494 52.0233C260.221 52.7248 260.077 53.614 259.974 54.3565C259.846 55.2834 259.729 56.1979 259.729 57.1479C259.729 57.7669 260.309 58.2256 260.805 58.5128C261.456 58.8894 262.471 58.9852 263.205 58.9852C263.716 58.9852 264.442 59.1053 264.579 58.4656C264.775 57.5527 265.085 56.6096 265.085 55.6695" stroke="white" stroke-width="3" stroke-linecap="round"/>
<path d="M175.083 155.007C246.135 201.352 226.832 260.135 222.766 270.301C185.515 363.43 102.63 377.343 -11.6289 377.343" stroke="white" stroke-width="3" stroke-linecap="round"/>
<path d="M1.42508 236.546C-85.4656 290.426 29.8819 282.082 29.8819 282.082" stroke="white" stroke-width="3" stroke-linecap="round"/>
<path d="M41.2785 238.007C-33.5564 287.81 75.0509 283.512 75.0509 283.512" stroke="white" stroke-width="3" stroke-linecap="round"/>
</svg>
