<svg width="644" height="670" viewBox="0 0 644 670" fill="none" xmlns="http://www.w3.org/2000/svg">
<path d="M43.1582 301.232C123.063 271.659 141.105 233.035 155.41 233.035C163.051 233.035 174.585 236.773 169.183 264.956" stroke="white" stroke-width="3" stroke-linecap="round"/>
<path d="M43.2217 301.634C44.3519 303.612 56.0732 304.825 58.0782 304.825C58.9557 304.379 55.218 308.169 56.2924 308.017C56.2924 308.017 58.9557 308.599 63.5497 308.169C72.8559 307.299 88.8321 301.151 91.6669 300.114C103.5 310.537 130.583 304.28 130.583 304.28C130.583 304.28 152.302 301.292 169.034 265.347" stroke="white" stroke-width="3" stroke-linecap="round"/>
<path d="M138.405 265.947C138.405 265.947 110.783 270.886 55.9898 245.741C54.0618 245.741 61.1098 257.791 64.9069 263.215C67.1794 266.461 68.8566 270.148 70.9718 273.513C73.3715 277.331 74.1403 277.296 78.4177 277.296C80.2247 277.296 81.8114 276.756 83.7019 276.756C88.2314 276.756 92.6257 279.914 96.7023 281.86C99.485 283.188 101.155 283.782 104.238 283.782C106.631 283.782 108.402 282.16 110.783 282.16C117.753 282.16 124.121 282.459 130.839 280.539" stroke="white" stroke-width="3" stroke-linecap="round"/>
<path d="M122.012 256.926C78.4169 204.408 80.3935 196.874 78.4169 191.758C78.4169 190.583 74.1436 203.577 72.7424 209.743C71.6929 214.36 71.7227 220.882 74.3937 224.755C76.886 228.368 75.9581 229.954 72.262 232.951C63.6804 239.909 89.7659 252.88 89.7659 257.841" stroke="white" stroke-width="3" stroke-linecap="round"/>
<path d="M155.615 246.813V249.599" stroke="white" stroke-width="3" stroke-linecap="round"/>
<path d="M170.044 242.432C173.94 243.484 184.687 248.868 184.687 248.868C186.418 249.79 173.245 254.271 171.878 254.928" stroke="white" stroke-width="3" stroke-linecap="round"/>
<path d="M123.197 305.514C118.532 306.156 113.284 307.927 109.225 309.148C103.284 310.936 97.6736 312.943 91.7891 315.197" stroke="white" stroke-width="3" stroke-linecap="round"/>
<path d="M104.982 313.311C101.303 313.471 96.8145 313.452 96.8145 317.709" stroke="white" stroke-width="3" stroke-linecap="round"/>
<path d="M104.981 310.798V317.081" stroke="white" stroke-width="3" stroke-linecap="round"/>
<path d="M51.8276 483.36H69.7076V484.76H51.8276V483.36ZM53.8876 489.8H59.4876V490.98H53.8876V489.8ZM53.8876 493H59.4876V494.18H53.8876V493ZM62.8276 486.72H64.2476V494.94H62.8276V486.72ZM58.9476 486.54H60.4076V496.88C60.4076 497.64 60.2276 498.04 59.6676 498.28C59.1276 498.52 58.2476 498.52 56.8876 498.52C56.8076 498.14 56.5876 497.58 56.3876 497.2C57.3876 497.24 58.3076 497.24 58.5876 497.22C58.8676 497.2 58.9476 497.12 58.9476 496.86V486.54ZM66.8876 486.12H68.3676V496.74C68.3676 497.62 68.1676 498.04 67.5476 498.28C66.9276 498.5 65.9276 498.54 64.3676 498.54C64.2876 498.14 64.0476 497.5 63.8276 497.1C65.0476 497.14 66.1276 497.14 66.4676 497.12C66.7876 497.1 66.8876 497.02 66.8876 496.74V486.12ZM54.9276 480.7L56.3076 480.18C57.0876 481.04 57.9276 482.22 58.3076 483L56.8276 483.54C56.5076 482.78 55.6876 481.56 54.9276 480.7ZM65.2076 480.12L66.8076 480.64C66.0476 481.88 65.1476 483.26 64.4076 484.2L63.0876 483.7C63.8076 482.74 64.7076 481.2 65.2076 480.12ZM53.1676 486.54H54.5276V491.32C54.5276 493.56 54.2876 496.64 52.8076 498.66C52.5876 498.4 52.0076 497.96 51.6676 497.8C53.0076 495.92 53.1676 493.32 53.1676 491.3V486.54ZM54.0276 486.54H59.6476V487.78H54.0276V486.54ZM77.8676 489.1H83.3476V490.34H77.8676V489.1ZM77.8676 492.58H83.4076V493.82H77.8676V492.58ZM73.7476 496.16H87.8676V497.56H73.7476V496.16ZM72.8276 485.48H88.6876V498.62H87.1676V486.88H74.2876V498.62H72.8276V485.48ZM77.1676 486.36H78.5276V496.8H77.1676V486.36ZM82.7676 486.36H84.1476V496.74H82.7676V486.36ZM79.7676 482.2L81.5076 482.6C81.0876 483.94 80.6676 485.48 80.2676 486.48L78.9076 486.1C79.2276 485.02 79.6276 483.36 79.7676 482.2ZM71.9276 481.54H89.6476V482.98H71.9276V481.54ZM100.748 482.04H107.788V483.42H100.748V482.04ZM97.9876 489.56H107.708V490.94H97.9876V489.56ZM107.208 482.04H108.708C108.708 482.04 108.688 482.46 108.668 482.68C108.428 486.18 108.168 487.56 107.628 488.12C107.288 488.48 106.888 488.62 106.288 488.64C105.788 488.68 104.788 488.68 103.748 488.62C103.708 488.22 103.548 487.62 103.288 487.24C104.308 487.32 105.288 487.34 105.668 487.34C106.008 487.34 106.208 487.32 106.388 487.16C106.748 486.82 106.988 485.52 107.208 482.26V482.04ZM100.508 480.2L102.048 480.4C101.548 484.26 100.328 487.2 98.1676 489.12C97.9276 488.88 97.2676 488.38 96.9076 488.16C99.0276 486.48 100.108 483.72 100.508 480.2ZM107.208 489.56H107.528L107.788 489.5L108.768 489.94C106.928 494.98 102.368 497.5 97.3676 498.6C97.2276 498.2 96.8876 497.58 96.6076 497.24C101.288 496.4 105.668 494.04 107.208 489.8V489.56ZM100.688 490.82C102.328 494 105.788 496.36 110.048 497.26C109.708 497.58 109.288 498.2 109.068 498.6C104.708 497.5 101.248 494.92 99.3676 491.28L100.688 490.82ZM92.6076 481.46L93.4276 480.38C94.7276 480.92 96.3276 481.84 97.0876 482.56L96.2276 483.78C95.4476 483.04 93.8876 482.06 92.6076 481.46ZM91.5276 486.88L92.3276 485.76C93.6276 486.26 95.2476 487.14 96.0676 487.82L95.2076 489.06C94.4276 488.36 92.8276 487.44 91.5276 486.88ZM92.1676 497.34C93.1876 495.8 94.6476 493.18 95.7676 490.9L96.8876 491.86C95.8876 493.96 94.5676 496.48 93.4476 498.32L92.1676 497.34ZM112.028 482.8H129.548V484.22H112.028V482.8ZM116.748 489.94H126.268V491.24H116.748V489.94ZM125.728 486.54H127.188V496.74C127.188 497.62 127.008 498.08 126.328 498.32C125.688 498.56 124.568 498.56 122.848 498.56C122.788 498.14 122.568 497.52 122.348 497.1C123.688 497.16 124.908 497.14 125.268 497.14C125.608 497.12 125.728 497.02 125.728 496.72V486.54ZM118.568 480.2L120.088 480.56C118.748 484.9 116.348 489.3 112.588 491.96C112.388 491.62 111.908 491.08 111.628 490.8C115.148 488.36 117.488 484.16 118.568 480.2ZM116.628 493.32H126.268V494.62H116.628V493.32ZM116.648 486.54H126.148V487.9H116.648V486.54ZM115.848 486.54H117.348V491.84C117.348 494.06 117.008 496.88 115.048 498.72C114.848 498.38 114.288 497.76 113.988 497.54C115.668 495.94 115.848 493.72 115.848 491.82V486.54ZM137.848 494.4H149.908V495.68H137.848V494.4ZM138.668 481.82H149.028V483.04H138.668V481.82ZM137.808 484.94H149.788V486.18H137.808V484.94ZM143.148 492.44H144.628V498.58H143.148V492.44ZM140.668 490.6V491.94H146.848V490.6H140.668ZM140.668 488.34V489.64H146.848V488.34H140.668ZM139.248 487.3H148.288V492.98H139.248V487.3ZM140.488 483.36L141.728 483.04C142.008 483.56 142.308 484.28 142.448 484.72L141.128 485.14C141.008 484.66 140.748 483.92 140.488 483.36ZM145.728 483.1L147.168 483.44C146.808 484.22 146.388 484.98 146.068 485.54L144.828 485.22C145.128 484.6 145.528 483.7 145.728 483.1ZM142.528 480.5L143.868 480.14C144.148 480.78 144.488 481.6 144.628 482.14L143.248 482.56C143.128 482.02 142.808 481.14 142.528 480.5ZM132.168 481.02H136.928V482.38H133.508V498.56H132.168V481.02ZM136.648 481.02H136.908L137.128 480.96L138.108 481.54C137.468 483.18 136.688 485.16 135.968 486.74C137.528 488.4 137.888 489.84 137.908 491.1C137.908 492.18 137.668 493.02 137.068 493.46C136.788 493.66 136.428 493.76 136.008 493.82C135.568 493.86 135.048 493.86 134.568 493.84C134.568 493.48 134.408 492.9 134.188 492.52C134.668 492.56 135.108 492.58 135.448 492.54C135.688 492.54 135.928 492.48 136.108 492.36C136.428 492.14 136.548 491.58 136.548 490.96C136.548 489.86 136.168 488.5 134.588 486.9C135.388 485.1 136.188 482.78 136.648 481.42V481.02ZM158.748 486.6L159.908 486.84C159.568 488.52 159.008 490.24 158.348 491.38C158.108 491.22 157.588 490.96 157.268 490.84C158.008 489.72 158.448 488.16 158.748 486.6ZM158.948 488.32H162.848V489.52H158.588L158.948 488.32ZM157.588 491.9H162.988V493.14H157.588V491.9ZM163.228 480.92H168.708V482.1H163.228V480.92ZM163.048 486.98H169.148V488.24H163.048V486.98ZM159.728 488.88H160.908V491.54C160.908 493.62 160.568 496.58 157.808 498.66C157.648 498.38 157.268 498.02 156.988 497.82C159.528 496.02 159.728 493.3 159.728 491.54V488.88ZM159.928 494.26L160.748 493.62C161.468 494.28 162.288 495.22 162.648 495.82L161.828 496.58C161.428 495.92 160.628 494.94 159.928 494.26ZM168.388 480.92H168.708L168.948 480.84L169.828 481.48C168.928 482.78 167.588 484.22 166.448 485.14C166.268 484.9 165.908 484.54 165.688 484.38C166.668 483.56 167.808 482.18 168.388 481.18V480.92ZM163.728 484L164.488 483.2C165.828 483.9 167.548 485 168.408 485.76L167.588 486.7C166.768 485.92 165.068 484.78 163.728 484ZM168.748 486.98H168.928L169.128 486.92L169.968 487.18C169.728 488.24 169.448 489.46 169.168 490.26L168.148 489.9C168.368 489.18 168.588 488.1 168.748 487.16V486.98ZM165.908 487.54H167.088V497.8L165.908 497.02V487.54ZM166.508 491.6H169.748V492.82H166.508V491.6ZM164.508 493.18C165.228 496.46 166.748 497.08 168.408 497.08C168.688 497.08 169.748 497.08 170.148 497.06C169.968 497.38 169.808 498 169.748 498.34H168.308C166.148 498.34 164.468 497.5 163.548 493.54L164.508 493.18ZM163.688 490.2H164.788C164.688 493.76 164.328 496.86 162.648 498.64C162.468 498.38 162.108 498 161.828 497.82C163.288 496.26 163.608 493.4 163.688 490.2ZM151.628 481.32H157.728V482.66H151.628V481.32ZM153.548 487.34H157.148V495.86H153.548V494.54H155.968V488.66H153.548V487.34ZM153.828 481.98L155.168 482.18C154.648 486.3 153.748 490.22 152.088 492.82C151.948 492.5 151.528 491.8 151.268 491.46C152.688 489.2 153.408 485.66 153.828 481.98ZM152.928 487.34H154.108V497.52H152.928V487.34ZM158.108 480.24H159.348V484.48C159.348 485.06 159.408 485.22 159.768 485.22C160.068 485.22 161.388 485.22 161.708 485.22C162.008 485.22 162.468 485.2 162.748 485.14C162.788 485.46 162.828 485.96 162.888 486.26C162.628 486.32 162.168 486.36 161.728 486.36C161.388 486.36 159.988 486.36 159.708 486.36C158.408 486.36 158.108 485.86 158.108 484.46V480.24ZM158.488 482.12H162.528V483.26H158.488V482.12ZM173.368 492.58L173.108 484.12L173.068 482.02H174.908L174.868 484.12L174.608 492.58H173.368ZM173.968 497.28C173.248 497.28 172.668 496.7 172.668 495.88C172.668 495.04 173.248 494.48 173.968 494.48C174.708 494.48 175.308 495.04 175.308 495.88C175.308 496.7 174.708 497.28 173.968 497.28Z" fill="white"/>
<path d="M284.346 2L656.647 1.99997" stroke="white" stroke-width="3" stroke-linecap="round"/>
<path d="M283.571 2C272.121 10.9221 260.747 19.893 249.012 28.428" stroke="white" stroke-width="3" stroke-linecap="round"/>
<path d="M249.012 29.3926H650.657" stroke="white" stroke-width="3" stroke-linecap="round"/>
<path d="M266.292 107.114H667.938" stroke="white" stroke-width="3" stroke-linecap="round"/>
<path d="M266.292 184.836H667.938" stroke="white" stroke-width="3" stroke-linecap="round"/>
<path d="M266.292 262.558H667.938" stroke="white" stroke-width="3" stroke-linecap="round"/>
<path d="M266.292 340.279H667.938" stroke="white" stroke-width="3" stroke-linecap="round"/>
<path d="M266.292 418.001H667.938" stroke="white" stroke-width="3" stroke-linecap="round"/>
<path d="M266.292 495.723H667.938" stroke="white" stroke-width="3" stroke-linecap="round"/>
<path d="M266.292 573.444H667.938" stroke="white" stroke-width="3" stroke-linecap="round"/>
<path d="M266.292 651.166H667.938" stroke="white" stroke-width="3" stroke-linecap="round"/>
<path d="M249.012 29.3926V668.142" stroke="white" stroke-width="3" stroke-linecap="round"/>
<path d="M364.525 41.6934V661.454" stroke="white" stroke-width="3" stroke-linecap="round"/>
<path d="M480.037 41.6934V661.454" stroke="white" stroke-width="3" stroke-linecap="round"/>
<path d="M595.551 41.6934V661.454" stroke="white" stroke-width="3" stroke-linecap="round"/>
<path d="M231.655 55.5188L229.565 71.5301L229.505 71.9861L229.813 72.3281L240.607 84.3374L224.595 82.2469L224.139 82.1874L223.797 82.4948L211.788 93.2888L213.878 77.2774L213.938 76.8214L213.631 76.4794L202.837 64.4701L218.848 66.5606L219.304 66.6201L219.646 66.3127L231.655 55.5188Z" stroke="white" stroke-width="2"/>
<path d="M594.95 277.921L610.253 283.074L610.689 283.22L611.084 282.985L624.957 274.722L619.804 290.025L619.658 290.461L619.893 290.856L628.156 304.729L612.853 299.576L612.417 299.429L612.022 299.665L598.149 307.928L603.302 292.625L603.449 292.189L603.213 291.794L594.95 277.921Z" stroke="white" stroke-width="2"/>
<path d="M296.958 580.112L308.748 591.145L309.084 591.46L309.541 591.409L325.591 589.641L314.558 601.431L314.244 601.767L314.294 602.224L316.062 618.274L304.272 607.241L303.936 606.926L303.479 606.977L287.429 608.745L298.462 596.955L298.777 596.619L298.726 596.162L296.958 580.112Z" stroke="white" stroke-width="2"/>
<path d="M225.647 488.5C225.647 507.765 213.417 525.418 193.2 538.328C173 551.228 145.003 559.256 114 559.256C82.998 559.256 55.0008 551.228 34.8008 538.328C14.5837 525.418 2.35352 507.765 2.35352 488.5C2.35352 469.235 14.5837 451.582 34.8008 438.672C55.0008 425.772 82.998 417.744 114 417.744C145.003 417.744 173 425.772 193.2 438.672C213.417 451.582 225.647 469.235 225.647 488.5Z" stroke="white" stroke-width="3"/>
<path d="M172.329 383.995C172.329 385.777 171.196 387.601 168.92 389.055C166.662 390.497 163.45 391.438 159.826 391.438C156.201 391.438 152.99 390.497 150.731 389.055C148.455 387.601 147.322 385.777 147.322 383.995C147.322 382.214 148.455 380.389 150.731 378.936C152.99 377.494 156.201 376.553 159.826 376.553C163.45 376.553 166.662 377.494 168.92 378.936C171.196 380.389 172.329 382.214 172.329 383.995Z" stroke="white" stroke-width="3"/>
<path d="M166.729 346.381C166.729 347.174 166.222 348.105 164.96 348.911C163.715 349.706 161.904 350.247 159.826 350.247C157.748 350.247 155.937 349.706 154.692 348.911C153.43 348.105 152.924 347.174 152.924 346.381C152.924 345.587 153.43 344.657 154.692 343.851C155.937 343.056 157.748 342.515 159.826 342.515C161.904 342.515 163.715 343.056 164.96 343.851C166.222 344.657 166.729 345.587 166.729 346.381Z" stroke="white" stroke-width="3"/>
</svg>
