<svg width="380" height="157" viewBox="0 0 380 157" fill="none" xmlns="http://www.w3.org/2000/svg">
<path d="M385.129 46.2341C231.308 49.4932 206.184 22.6701 192.466 21.8838C157.307 19.8677 23.3942 49.4932 1.5459 49.4932" stroke="white" stroke-width="3" stroke-linecap="round"/>
<path d="M143.347 27.2314C123.371 35.8955 106.043 73.44 58.7375 78.5413C37.5213 80.8292 29.5625 76.0874 14.5879 76.0874" stroke="white" stroke-width="3" stroke-linecap="round"/>
<path d="M261.309 40.373C253.538 45.0827 245.213 47.6405 237.217 51.6726C227.074 56.7878 217.947 65.651 208.542 72.0332" stroke="white" stroke-width="3" stroke-linecap="round"/>
<path d="M231.346 136.471C218.697 134.177 206.395 127.333 196.305 118.569" stroke="white" stroke-width="3" stroke-linecap="round"/>
<path d="M196.305 22.6292C196.305 18.8803 193.972 16.637 191.508 13.9947C187.913 10.1399 185.221 6.21747 182.873 1.52246" stroke="white" stroke-width="3" stroke-linecap="round"/>
<path d="M388.711 155.209C343.636 133.707 279.457 131.148 264.102 133.707C209.274 142.845 153.649 127.398 145.456 124.326" stroke="white" stroke-width="3" stroke-linecap="round"/>
</svg>
