<svg width="452" height="163" viewBox="0 0 452 163" fill="none" xmlns="http://www.w3.org/2000/svg">
<path d="M-0.5 49.5066C22.9594 49.5066 55.0863 37.4485 77.2073 29.2987C83.4297 27.0062 90.1099 27.6995 96.507 25.2117C102.18 23.0056 112.539 19.9784 118.531 21.3518C128.948 23.739 140.551 32.4746 149.411 38.3809C158.394 44.3697 169.492 45.7215 180.29 46.4414C198.84 47.678 215.953 50.6419 234.897 50.6419C247.539 50.6419 260.256 51.1972 272.815 49.5066C294.258 46.6201 312.535 36.5817 333.326 32.2504C348.296 29.1315 363.033 27.6882 378.055 25.0982C385.611 23.7955 393.554 23.7759 401.215 24.19C421.578 25.2907 433.92 36.343 450.259 46.5549" stroke="white" stroke-width="3" stroke-linecap="round"/>
<path d="M216 50C230.599 53.6024 247.453 64.7474 261.122 69.9415C274.165 74.898 274.873 93.9949 276.562 105.816" stroke="white" stroke-width="3" stroke-linecap="round"/>
<path d="M-2 110.244C2 122.5 42.8108 109.903 54.9559 109.903C64.7472 109.903 75.0711 109.12 84.8137 110.244C108.516 112.979 125.002 129.764 143.734 142.599C158.747 152.885 175.725 160.991 194.822 160.991" stroke="white" stroke-width="3" stroke-linecap="round"/>
<path d="M107.5 118C109.546 129.254 121.643 141.584 127.386 150.773" stroke="white" stroke-width="3" stroke-linecap="round"/>
<path d="M336.5 31.5C351.802 17.7963 364.156 11.4928 383 2" stroke="white" stroke-width="3" stroke-linecap="round"/>
</svg>
