<svg width="552" height="89" viewBox="0 0 552 89" fill="none" xmlns="http://www.w3.org/2000/svg">
<path d="M37.208 88.9209C92.9472 -3.71348 392.116 -47.8744 516.546 88.9209" stroke="white" stroke-width="3" stroke-linecap="round"/>
<circle cx="115.535" cy="32.6226" r="8" fill="white"/>
<circle cx="21.8521" cy="57.0337" r="5.39697" stroke="white" stroke-width="3"/>
<path d="M21.9736 37V46.4836" stroke="white" stroke-width="3" stroke-linecap="round"/>
<path d="M36.7588 42.2998L30.0529 49.0057" stroke="white" stroke-width="3" stroke-linecap="round"/>
<path d="M7.42871 43.1306L14.1346 49.8365" stroke="white" stroke-width="3" stroke-linecap="round"/>
<path d="M21.9551 67.5132V76.9968" stroke="white" stroke-width="3" stroke-linecap="round"/>
<path d="M30.0068 64.1602L36.7127 70.8661" stroke="white" stroke-width="3" stroke-linecap="round"/>
<path d="M32.4971 58.0093L41.9807 58.0093" stroke="white" stroke-width="3" stroke-linecap="round"/>
<path d="M2 57.0337L11.4836 57.0337" stroke="white" stroke-width="3" stroke-linecap="round"/>
<path d="M7.15723 70.75L13.8631 64.0441" stroke="white" stroke-width="3" stroke-linecap="round"/>
<path d="M535.495 36.9968C542.657 54.3479 543.791 71.8268 516.538 70.2404C531.648 84.5262 570.386 77.3831 535.495 36.9968Z" stroke="white" stroke-width="3" stroke-linejoin="round"/>
</svg>
