<svg width="333" height="263" viewBox="0 0 333 263" fill="none" xmlns="http://www.w3.org/2000/svg">
<path d="M143.433 238.389C143.433 238.389 73.2505 157.422 77.0464 119.056C81.8223 70.786 119.538 58.5947 126.771 55.7382C193.811 29.264 274.408 97.9185 280.542 103.463" stroke="white" stroke-width="3" stroke-linecap="round"/>
<path d="M124.917 153.458C124.988 153.742 124.988 153.742 124.988 153.742" stroke="white" stroke-width="3" stroke-linecap="round"/>
<path d="M185.377 89.2369C185.651 89.3397 185.651 89.3397 185.651 89.3397" stroke="white" stroke-width="3" stroke-linecap="round"/>
<path d="M148.091 137.744C147.485 135.349 144.545 113.994 145.879 113.656C149.717 111.388 169.151 115.149 173.164 116.825" stroke="white" stroke-width="3" stroke-linecap="round"/>
<path d="M148.277 137.576C173.448 117.41 148.277 137.576 173.448 117.41" stroke="white" stroke-width="3" stroke-linecap="round"/>
<path d="M148.375 137.913C150.341 138.204 178.797 147.647 178.797 147.647C179.642 148.44 173.763 118.177 173.458 117.2" stroke="white" stroke-width="3" stroke-linecap="round"/>
<path d="M104.03 169.709C104.03 169.709 114.55 162.586 109.826 127.517" stroke="white" stroke-width="3" stroke-linecap="round"/>
<path d="M203.888 70.3252C203.888 70.3252 195.619 79.9714 161.311 71.3063" stroke="white" stroke-width="3" stroke-linecap="round"/>
<path d="M259.797 16.1694C261.959 23.274 265.611 29.4587 270.662 34.9122C272.509 36.9055 276.515 34.5833 279.086 35.3232C283.719 36.6569 288.132 45.9598 289.234 50.3188" stroke="white" stroke-width="3" stroke-linecap="round"/>
<path d="M230.22 14.3535C245.837 28.7269 243.762 42.6982 261.551 54.6141C268.697 59.4007 284.543 65.6025 294.538 66.7163C300.825 67.417 302.83 71.1771 304.238 76.7413" stroke="white" stroke-width="3" stroke-linecap="round"/>
<path d="M44.168 122.274C41.6439 127.209 38.2684 135.251 40.2519 141C41.482 144.566 48.1924 145.525 50.8615 147.54C57.7382 152.729 46.8841 170.077 53.6428 173.534C60.8028 177.197 67.9628 180.859 75.1227 184.522" stroke="white" stroke-width="3" stroke-linecap="round"/>
<path d="M31.499 153.66C32.9266 156.545 29.6897 162.103 32.1364 163.904C36.2698 166.947 37.9686 167.637 36.9059 173.045" stroke="white" stroke-width="3" stroke-linecap="round"/>
<path d="M136.597 150.432C137.533 154.129 137.062 157.19 135.587 159.527C134.105 161.876 131.482 163.691 127.744 164.637C124.001 165.584 120.872 165.238 118.494 163.89C116.127 162.548 114.289 160.092 113.351 156.384C112.413 152.676 112.865 149.654 114.309 147.361C115.762 145.055 118.353 143.272 122.099 142.324C125.852 141.375 129.014 141.689 131.42 143.008C133.807 144.318 135.662 146.736 136.597 150.432Z" stroke="white" stroke-width="3"/>
<path d="M181.046 100.5C184.614 101.848 187.708 101.727 190.197 100.526C192.699 99.3188 194.8 96.9192 196.163 93.3121C197.527 89.7004 197.538 86.5526 196.468 84.037C195.403 81.5332 193.171 79.4285 189.592 78.0765C186.015 76.7246 182.961 76.8317 180.519 78.0075C178.064 79.1897 175.999 81.5618 174.633 85.1771C173.265 88.7984 173.218 91.9755 174.257 94.515C175.288 97.0352 177.48 99.1522 181.046 100.5Z" stroke="white" stroke-width="3"/>
</svg>
