<svg width="313" height="345" viewBox="0 0 313 345" fill="none" xmlns="http://www.w3.org/2000/svg">
<path d="M-6.96094 180.956C63.9287 196.232 97.374 119.428 102.825 105.96C114.019 80.233 158.399 66.2784 188.071 92.6074C192.262 96.7977 204.213 106.991 207.768 116.934" stroke="white" stroke-width="3" stroke-linecap="round"/>
<path d="M202.806 116.745C256.129 132.103 268.073 129.159 272.19 129.512C277.299 129.512 249.884 134.162 202.806 136.371" stroke="white" stroke-width="3" stroke-linecap="round"/>
<path d="M205.868 145.345C204.761 213.888 190.174 221.994 174.095 234.575" stroke="white" stroke-width="3" stroke-linecap="round"/>
<path d="M271.836 129.762C239.962 139.742 215.392 142.804 202.378 144.154" stroke="white" stroke-width="3" stroke-linecap="round"/>
<path d="M139.294 104.066C139.294 104.066 148.27 110.232 169.442 112.548" stroke="white" stroke-width="3" stroke-linecap="round"/>
<path d="M207.717 146.358C207.717 146.358 215.527 149.773 234.395 155.049C242.894 157.425 240.438 157.51 238.756 157.51C236.325 157.51 211.132 154.366 206.85 150.413" stroke="white" stroke-width="3" stroke-linecap="round"/>
<path d="M144.461 107.961C142.79 119.782 153.022 124.515 157.37 121.097C160.196 119.365 161.472 115.408 162.655 112.449" stroke="white" stroke-width="3" stroke-linecap="round"/>
<path d="M109.215 164.604C109.215 164.604 76.4739 239.291 104.852 261.378C111.12 267.031 201.787 306.124 247.325 290.727C272.226 282.308 291.481 239.37 274.421 224.239C237.917 191.861 219.292 214.069 232.064 232.533C236.737 239.289 237.697 257.412 221.677 257.412C150.542 251.762 164.741 190.781 164.741 190.781" stroke="white" stroke-width="3" stroke-linecap="round"/>
<path d="M201.516 196.309C229.583 201.252 246.099 194.488 251.467 192.366C259.481 189.197 256.361 180.689 252.789 178.705C242.209 172.827 255.132 168.143 259.706 167.319C286.382 162.511 285.861 182.274 284.518 189.986C282.069 204.053 269.461 212.752 264.799 216.108" stroke="white" stroke-width="3" stroke-linecap="round"/>
<path d="M111.143 265.123C38.5396 281.234 4.64467 269.308 -2.67773 256.618" stroke="white" stroke-width="3" stroke-linecap="round"/>
<path d="M82.1865 270.991C89.1135 285.614 108.191 328.431 108.191 328.431" stroke="white" stroke-width="3" stroke-linecap="round"/>
<path d="M107.289 328.431C92.3174 328.431 88.2891 337.22 88.2891 337.22" stroke="white" stroke-width="3" stroke-linecap="round"/>
<path d="M106.78 328.36C106.78 328.36 116.25 329.217 118.819 336.218" stroke="white" stroke-width="3" stroke-linecap="round"/>
<path d="M108.191 328.431C130.883 330.894 145.614 342.608 145.614 342.608" stroke="white" stroke-width="3" stroke-linecap="round"/>
<path d="M109.645 327.587C114.741 324.883 120.833 327.587 120.833 327.587" stroke="white" stroke-width="3" stroke-linecap="round"/>
<path d="M110.932 266.868C110.932 266.868 116.926 271.41 157.308 300.218" stroke="white" stroke-width="3" stroke-linecap="round"/>
<path d="M156.294 300.274C163.827 302.17 168.117 307.457 168.117 307.457" stroke="white" stroke-width="3" stroke-linecap="round"/>
<path d="M157.339 299.557C162.029 296.562 169.242 298.376 169.242 298.376" stroke="white" stroke-width="3" stroke-linecap="round"/>
<path d="M157.308 300.218C157.308 300.218 175.41 300.218 194.64 310.97" stroke="white" stroke-width="3" stroke-linecap="round"/>
<path d="M221.872 54.9556C225.925 32.5688 225.925 32.5688 225.925 32.5688" stroke="white" stroke-width="3" stroke-linecap="round"/>
<path d="M246.11 62.9436C297.517 1.59375 246.11 62.9436 297.517 1.59375" stroke="white" stroke-width="3" stroke-linecap="round"/>
<path d="M263.128 78.4782C311.316 60.4077 311.316 60.4077 311.316 60.4077" stroke="white" stroke-width="3" stroke-linecap="round"/>
<path d="M205.786 154.708C207.605 155.601 218.792 157.536 237.957 157.111" stroke="white" stroke-width="3" stroke-linecap="round"/>
<path d="M230.521 231.726C180.118 242.278 175.269 236.198 175.269 236.198" stroke="white" stroke-width="3" stroke-linecap="round"/>
<path d="M156.036 300.218C146.772 298.437 139.831 301.952 137.025 308.452" stroke="white" stroke-width="3" stroke-linecap="round"/>
</svg>
